<svg version="1.1" id="Layer_1" xmlns="http://www.w3.org/2000/svg" xmlns:xlink="http://www.w3.org/1999/xlink" x="0px" y="0px"
	 width="100%" viewBox="0 0 148 52" enable-background="new 0 0 148 52" xml:space="preserve">
<path fill="#FFFFFF" opacity="1.000000" stroke="none" 
	d="
M147.000000,1.000000 
	C150.072052,0.387934 148.962280,2.721060 148.966248,3.990363 
	C149.017334,20.291708 149.000000,36.593266 149.000000,52.947304 
	C99.666664,52.947304 50.333332,52.947304 1.000000,52.947304 
	C1.000000,45.575562 1.000000,38.256516 1.468657,30.468737 
	C19.614382,29.947210 37.291447,29.894423 55.433006,29.910503 
	C60.942307,29.933493 65.987114,29.887613 71.494698,29.915215 
	C95.471642,29.992460 118.985855,30.013294 142.499893,29.958647 
	C143.948273,29.955282 145.395264,29.356541 146.901184,28.766350 
	C146.920822,28.318865 146.882217,28.139841 146.916199,27.498283 
	C146.992538,18.357164 146.996262,9.678582 147.000000,1.000000 
z"/>
<path fill="#5F1A89" opacity="1.000000" stroke="none" 
	d="
M1.000000,14.000000 
	C1.000000,9.690504 1.000000,5.381007 1.000000,1.000000 
	C23.020847,1.000000 45.041767,1.000000 67.416382,1.318900 
	C64.144928,6.413552 60.435356,11.038870 52.923717,8.861652 
	C52.923717,15.954993 52.923717,22.213385 52.923717,28.634018 
	C49.755516,28.634018 47.057312,28.634018 43.900898,28.634018 
	C43.900898,22.024624 43.900898,15.768545 43.900898,9.265289 
	C33.199966,9.265289 22.962261,9.265289 12.724552,9.265289 
	C18.101295,10.001261 23.498962,9.904058 28.891558,10.027839 
	C34.602303,10.158919 39.851231,14.649443 39.989975,19.297777 
	C40.140022,24.324856 35.163151,28.708370 28.964397,28.993402 
	C28.133850,29.031593 27.300076,28.999926 26.467794,28.999937 
	C17.978529,29.000038 9.489264,28.999998 1.000000,29.000000 
	C1.000000,28.250000 1.000000,27.500000 1.358398,26.487345 
	C5.672378,20.072575 11.841008,20.794432 17.865131,20.985731 
	C20.524284,21.070173 23.193201,21.094316 25.848127,20.958694 
	C27.144375,20.892475 28.418713,20.397419 29.702969,20.096470 
	C29.689514,19.642851 29.676062,19.189232 29.662609,18.735611 
	C20.256142,16.376225 9.557424,20.846973 1.000000,14.000000 
z"/>
<path fill="#5F1A89" opacity="1.000000" stroke="none" 
	d="
M146.843597,27.960817 
	C146.882217,28.139841 146.920822,28.318865 146.445801,28.754093 
	C144.103867,29.006866 142.268860,28.900843 140.448578,29.019972 
	C135.706085,29.330330 131.589874,28.949646 127.994583,24.803883 
	C124.398727,20.657465 119.112534,21.663763 114.251450,22.469925 
	C114.047600,24.732683 113.873512,26.665113 113.700584,28.584644 
	C110.316078,28.584644 107.287727,28.584644 104.325653,28.584644 
	C104.325653,23.587208 104.325653,19.010580 104.325653,14.505711 
	C114.297020,12.584977 124.558708,16.146898 134.010834,11.256872 
	C131.928955,9.824544 129.827530,9.090685 127.714813,9.056601 
	C119.240234,8.919880 110.762161,9.000114 102.285378,8.999977 
	C94.664444,8.999853 94.193909,8.666204 91.000000,1.000000 
	C106.354225,1.000000 121.708458,1.000000 137.425064,1.352307 
	C146.232407,8.928137 146.429794,14.436282 138.066513,20.877800 
	C141.050858,23.286131 143.947220,25.623472 146.843597,27.960817 
z"/>
<path fill="#5F1A89" opacity="1.000000" stroke="none" 
	d="
M71.031921,29.841736 
	C65.987114,29.887613 60.942307,29.933493 55.465153,29.563038 
	C58.498325,23.771587 62.068695,18.460321 65.393959,12.999796 
	C67.766525,9.103728 69.809792,5.007120 72.000000,1.000000 
	C76.689255,1.000000 81.378510,1.000000 86.409599,1.362638 
	C92.040550,10.669047 97.329659,19.612818 102.880981,28.999983 
	C98.868294,28.999983 95.530861,29.257111 92.259056,28.904762 
	C90.256058,28.689054 87.300026,28.058683 86.627708,26.697779 
	C85.267830,23.945084 82.627975,20.554659 86.050232,18.066614 
	C83.667809,15.978425 81.361046,13.956550 79.628853,12.438281 
	C77.574348,13.955544 75.247299,15.674086 73.999611,16.595509 
	C72.905281,21.480034 71.968605,25.660885 71.031921,29.841736 
z"/>
<path fill="#000000" opacity="1.000000" stroke="none" 
	d="
M71.494698,29.915213 
	C71.968605,25.660885 72.905281,21.480034 73.999611,16.595509 
	C75.247299,15.674086 77.574348,13.955544 79.628853,12.438281 
	C81.361046,13.956550 83.667809,15.978425 86.050232,18.066614 
	C82.627975,20.554659 85.267830,23.945084 86.627708,26.697779 
	C87.300026,28.058683 90.256058,28.689054 92.259056,28.904762 
	C95.530861,29.257111 98.868294,28.999983 102.880981,28.999983 
	C97.329659,19.612818 92.040550,10.669047 86.875717,1.362638 
	C88.066673,1.000000 89.133339,1.000000 90.600006,1.000000 
	C94.193909,8.666204 94.664444,8.999853 102.285378,8.999977 
	C110.762161,9.000114 119.240234,8.919880 127.714813,9.056601 
	C129.827530,9.090685 131.928955,9.824544 134.010834,11.256872 
	C124.558708,16.146898 114.297020,12.584977 104.325653,14.505711 
	C104.325653,19.010580 104.325653,23.587208 104.325653,28.584644 
	C107.287727,28.584644 110.316078,28.584644 113.700584,28.584644 
	C113.873512,26.665113 114.047600,24.732683 114.251450,22.469925 
	C119.112534,21.663763 124.398727,20.657465 127.994583,24.803883 
	C131.589874,28.949646 135.706085,29.330330 140.448578,29.019972 
	C142.268860,28.900843 144.103867,29.006866 146.387543,29.022556 
	C145.395264,29.356541 143.948273,29.955282 142.499893,29.958647 
	C118.985855,30.013294 95.471642,29.992460 71.494698,29.915213 
z"/>
<path fill="#000000" opacity="1.000000" stroke="none" 
	d="
M71.600006,1.000000 
	C69.809792,5.007120 67.766525,9.103728 65.393959,12.999796 
	C62.068695,18.460321 58.498325,23.771587 55.000660,29.494167 
	C37.291447,29.894423 19.614382,29.947210 1.468657,30.000000 
	C1.000000,30.000000 1.000000,29.500000 1.000000,29.250000 
	C9.489264,28.999998 17.978529,29.000038 26.467794,28.999937 
	C27.300076,28.999926 28.133850,29.031593 28.964397,28.993402 
	C35.163151,28.708370 40.140022,24.324856 39.989975,19.297777 
	C39.851231,14.649443 34.602303,10.158919 28.891558,10.027839 
	C23.498962,9.904058 18.101295,10.001261 12.724552,9.265289 
	C22.962261,9.265289 33.199966,9.265289 43.900898,9.265289 
	C43.900898,15.768545 43.900898,22.024624 43.900898,28.634018 
	C47.057312,28.634018 49.755516,28.634018 52.923717,28.634018 
	C52.923717,22.213385 52.923717,15.954993 52.923717,8.861652 
	C60.435356,11.038870 64.144928,6.413552 67.885040,1.318900 
	C69.066673,1.000000 70.133339,1.000000 71.600006,1.000000 
z"/>
<path fill="#000000" opacity="1.000000" stroke="none" 
	d="
M146.916199,27.498280 
	C143.947220,25.623472 141.050858,23.286131 138.066513,20.877800 
	C146.429794,14.436282 146.232407,8.928137 137.893723,1.352307 
	C140.700012,1.000000 143.400024,1.000000 146.550018,1.000000 
	C146.996262,9.678582 146.992538,18.357164 146.916199,27.498280 
z"/>
<path fill="#000000" opacity="1.000000" stroke="none" 
	d="
M1.000000,14.460636 
	C9.557424,20.846973 20.256142,16.376225 29.662609,18.735611 
	C29.676062,19.189232 29.689514,19.642851 29.702969,20.096470 
	C28.418713,20.397419 27.144375,20.892475 25.848127,20.958694 
	C23.193201,21.094316 20.524284,21.070173 17.865131,20.985731 
	C11.841008,20.794432 5.672378,20.072575 1.358398,26.112345 
	C1.000000,22.307091 1.000000,18.614182 1.000000,14.460636 
z"/>
</svg>